<svg xmlns="http://www.w3.org/2000/svg" width="227" height="56" viewBox="0 0 227 56" fill="none"><path d="M39.0564 25.6294C34.0254 22.4407 29.0926 19.3167 24.0664 16.1304C27.7318 10.7425 31.3733 5.39046 35.0172 0.03125H52.9443C53.905 0.65174 54.8897 1.2866 55.9701 1.98376C50.3665 9.90877 44.7222 17.6829 39.0564 25.627V25.6294Z" fill="#00AB5A"></path><path d="M24.1352 39.8085C29.1039 36.6581 34.0103 33.5485 38.8473 30.4844C39.2498 30.5299 39.3887 30.7671 39.5301 30.9635C41.5688 33.8312 43.5884 36.7132 45.6319 39.5761C48.387 43.438 51.1565 47.2879 53.9259 51.1402C54.4098 51.811 54.9273 52.4603 55.4088 53.1311C55.5933 53.3874 55.8137 53.6389 55.8305 54.027C55.0615 54.705 54.1152 55.1482 53.2335 55.7544H34.995C34.3865 55.3447 34.0942 54.6164 33.6773 54.0007C31.8087 51.2336 29.9352 48.4714 28.0163 45.7403C26.7801 43.977 25.6062 42.1683 24.4083 40.3787C24.3101 40.2325 24.2526 40.06 24.1328 39.8133L24.1352 39.8085Z" fill="#00AB5A"></path><path d="M0 2.03156C0.943911 1.41826 1.8447 0.831312 2.75028 0.249154C3.06412 0.0455185 3.4091 0 3.78283 0.00239571C7.56087 0.0119786 11.3365 0.0143743 15.1146 0C15.5721 0 15.9626 0.114994 16.334 0.356961C17.1749 0.903184 18.0206 1.44462 18.8854 2.00042V23.4061C18.6219 23.6361 18.32 23.5283 18.0445 23.5283C13.5046 23.5355 8.96476 23.5283 4.42488 23.5427C3.81877 23.5427 3.31806 23.4037 2.81736 23.0539C1.90699 22.4215 0.948702 21.8561 0 21.2572L0 2.03156Z" fill="#00AB5A"></path><path d="M18.8684 53.9858C17.9412 54.5775 17.0357 55.1573 16.0989 55.7586H2.81231C1.90433 55.1765 0.970004 54.5799 0.0117188 53.9666V34.7937C0.984378 34.0199 2.12474 33.409 3.20041 32.6999C3.43759 32.5442 3.69633 32.4531 4.01016 32.4531C8.91179 32.4699 13.8158 32.4723 18.7174 32.4795C18.7486 32.4795 18.7797 32.5058 18.8684 32.5466V53.9858Z" fill="#00AB5A"></path><path d="M184.168 30.6835C185.651 34.0279 187.091 37.2765 188.576 40.6257H182.834C181.581 37.691 180.282 34.6556 178.974 31.5939H174.303V40.6305H169.281V15.4036C169.485 15.1928 169.756 15.2863 169.998 15.2863C173.05 15.2791 176.102 15.291 179.154 15.2791C180.8 15.2719 182.386 15.5546 183.921 16.1463C186.32 17.0687 187.702 18.8343 188.215 21.3139C188.502 22.7106 188.5 24.1073 188.215 25.5064C187.798 27.5571 186.744 29.167 184.935 30.2595C184.719 30.3888 184.496 30.5038 184.166 30.6859L184.168 30.6835ZM174.336 27.0013C176.143 27.0013 177.882 27.0396 179.619 26.9845C180.412 26.9582 181.186 26.7066 181.818 26.1676C182.975 25.1805 183.145 23.8821 182.886 22.5045C182.625 21.103 181.672 20.3149 180.314 20.0417C178.344 19.6441 176.356 19.9387 174.336 19.8573V27.0037V27.0013Z" fill="#001C38"></path><path d="M75.6171 26.5838C78.5207 22.7052 81.271 19.0349 84.0405 15.3359H90.5257C90.3556 15.9612 89.9315 16.3948 89.5793 16.8524C86.8195 20.4292 84.0453 23.994 81.2015 27.6571C84.1555 32.0149 87.2891 36.2433 90.346 40.6586C89.196 40.8383 88.1276 40.7257 87.0662 40.7473C85.9786 40.7688 84.8909 40.7521 83.7362 40.7521C81.0889 36.8902 78.4393 33.0259 75.6387 28.9436V40.7305C74.7187 40.7377 73.8635 40.7473 73.0058 40.7521C72.1769 40.7568 71.348 40.7521 70.4688 40.7521V15.3431H75.5333C75.7106 16.2391 75.5884 17.1734 75.6123 18.1006C75.6339 19.0062 75.6171 19.9141 75.6171 20.8197V26.5838Z" fill="#001C38"></path><path d="M150.473 20.233V25.4508C151.22 25.6712 152.016 25.5179 152.797 25.5443C153.595 25.573 154.395 25.5514 155.195 25.5514H157.483C158.276 25.5514 159.069 25.5514 159.881 25.5514C160.135 26.366 159.986 27.1254 160.013 27.8705C160.039 28.5892 160.018 29.3103 160.018 30.1536C156.822 30.2878 153.681 30.1344 150.423 30.2398C150.423 31.1766 150.418 32.0702 150.418 32.9638C150.418 33.8646 150.418 34.7654 150.418 35.7212C151.63 35.8937 152.785 35.7787 153.93 35.8003C155.128 35.8219 156.328 35.8051 157.526 35.8051C158.724 35.8051 159.845 35.8051 161.072 35.8051C161.249 36.5909 161.132 37.3839 161.153 38.1649C161.175 38.9602 161.158 39.7556 161.158 40.539C160.226 40.7307 146.13 40.7283 145.286 40.5462C145.217 39.6598 145.21 16.4453 145.279 15.4272C146.063 15.2451 158.959 15.1756 161.129 15.3529C161.187 16.1195 161.148 16.9077 161.156 17.6911C161.163 18.4865 161.156 19.2843 161.156 20.1323L150.468 20.2282L150.473 20.233Z" fill="#001C38"></path><path d="M98.7806 40.6574H93.6513C93.4693 40.3603 93.6226 40.1112 93.716 39.8452C95.0001 36.2636 96.2747 32.6796 97.5611 29.0981C98.4476 26.6329 99.3555 24.1749 100.24 21.7097C100.93 19.7835 101.6 17.8502 102.264 15.9144C102.336 15.706 102.381 15.5024 102.604 15.3203H107.544C108.651 18.0538 109.561 20.8832 110.563 23.6814C111.576 26.5155 112.599 29.3448 113.612 32.1789C114.614 34.9795 115.608 37.7849 116.624 40.6382H111.226C110.627 39.1936 110.148 37.7011 109.662 36.2013H100.393C99.7365 37.5933 99.3819 39.1361 98.7806 40.655V40.6574ZM105.254 23.1735C105.002 23.0489 104.851 23.0848 104.825 23.1615C103.874 26.0052 102.827 28.8178 101.926 31.6902C103.026 31.9178 107.42 31.8915 108.133 31.6782C107.161 28.8058 106.188 25.9333 105.251 23.1711L105.254 23.1735Z" fill="#001C38"></path><path d="M226.411 21.1377C224.784 21.7438 223.184 22.0912 221.576 22.4601C221.334 21.9953 221.226 21.5354 220.939 21.1544C219.751 19.5805 218.117 19.4104 216.349 19.6954C215.855 19.7745 215.393 19.9686 214.957 20.2584C213.589 21.164 213.416 23.6747 215.261 24.6138C215.644 24.8079 216.064 24.9468 216.48 25.0571C217.98 25.4476 219.489 25.8141 220.991 26.1926C222.268 26.516 223.435 27.0886 224.47 27.8864C225.912 28.998 226.756 30.4785 226.94 32.3017C227.23 35.1598 226.456 37.5699 224.046 39.3427C222.966 40.1381 221.753 40.5525 220.476 40.8376C217.661 41.4677 214.942 41.1515 212.35 39.8985C210.47 38.9881 209.195 37.5172 208.498 35.5503C208.45 35.4185 208.392 35.2843 208.373 35.1454C208.347 34.9346 208.249 34.7238 208.378 34.4075C209.849 33.9475 211.387 33.4995 212.995 33.1857C213.074 33.3462 213.169 33.5019 213.225 33.6672C213.658 34.9394 214.554 35.6988 215.838 36.0318C217.261 36.4008 218.682 36.463 220.098 35.9911C221.121 35.6485 221.749 34.9681 221.866 33.8829C221.988 32.7425 221.492 31.9375 220.486 31.4009C219.477 30.8619 218.356 30.7277 217.266 30.4905C215.927 30.1983 214.597 29.8772 213.328 29.3621C211.665 28.6866 210.28 27.6157 209.494 25.9914C207.686 22.2541 209.097 17.4842 212.901 15.8479C216.473 14.3123 219.997 14.3794 223.363 16.4948C224.604 17.2758 225.392 18.4305 225.951 19.7529C226.118 20.1482 226.224 20.5699 226.408 21.1353L226.411 21.1377Z" fill="#001C38"></path><path d="M128.243 36.0109H138.223C138.266 37.537 138.233 39.0415 138.247 40.6131H123.14C123.169 40.6466 123.145 40.6203 123.121 40.5915C123.099 40.5652 123.063 40.534 123.063 40.5077C123.054 32.3072 123.047 24.109 123.042 15.9085C123.042 15.7336 122.994 15.5468 123.157 15.3359H128.214C128.286 16.4523 128.233 17.5999 128.243 18.745C128.252 19.8686 128.243 20.9946 128.243 22.1206V32.4629C128.243 33.6176 128.243 34.77 128.243 36.0157V36.0109Z" fill="#001C38"></path><path d="M201.022 40.6353H196.094V15.3438H200.983C200.983 15.3438 201.015 15.3677 201.036 15.3965C201.058 15.4228 201.082 15.4563 201.082 15.4875C201.091 23.7575 201.098 32.0299 201.103 40.2999C201.103 40.4005 201.055 40.5011 201.019 40.6353H201.022Z" fill="#001C38"></path></svg>