<svg xmlns="http://www.w3.org/2000/svg" width="148" height="39" viewBox="0 0 148 39" fill="none"><g clip-path="url(#clip0_3008_15671)"><path fill-rule="evenodd" clip-rule="evenodd" d="M33.7768 17.8782C33.7768 27.2033 26.2135 34.7666 16.8884 34.7666C7.5578 34.7666 0 27.2033 0 17.8782C0 8.55303 7.56329 0.989746 16.8884 0.989746C26.2135 0.989746 33.7768 8.55303 33.7768 17.8782ZM4.68723 17.8782C4.68723 14.2502 7.62911 11.3083 11.2571 11.3083H15.9498V28.9487C14.6051 28.9487 13.5129 27.8564 13.5129 26.5117V13.7508H11.2571C8.97931 13.7508 7.12965 15.6004 7.12965 17.8782C7.12965 20.1559 8.97931 22.0056 11.2571 22.0056H12.1956V24.4425H11.2571C7.62362 24.4425 4.68723 21.5061 4.68723 17.8782ZM29.0895 17.8782C29.0895 21.5007 26.1476 24.4425 22.5197 24.4425H17.8269V6.80768C19.1716 6.80768 20.2639 7.89991 20.2639 9.24461V22.0056H22.5197C24.7974 22.0056 26.6471 20.1559 26.6471 17.8782C26.6471 15.6004 24.7974 13.7508 22.5197 13.7508H21.5811V11.3138H22.5197C26.1531 11.3138 29.0895 14.2557 29.0895 17.8782Z" fill="#A0A0A0"></path><path d="M49.8091 38.8611H47.1965V32.2473H47.1526C46.4775 33.2902 45.1493 33.9433 43.6893 33.9433C40.5114 33.9433 38.552 31.4185 38.552 28.3724C38.552 25.3262 40.6432 22.8838 43.6235 22.8838C45.539 22.8838 46.7135 23.8168 47.235 24.6456H47.3008V23.1857H49.8036V38.8611H49.8091ZM44.2162 31.7643C46.1318 31.7643 47.2844 30.0464 47.2844 28.4108C47.2844 26.7752 46.1318 25.0134 44.2162 25.0134C42.1964 25.0134 41.214 26.7313 41.214 28.3669C41.214 29.997 42.1909 31.7643 44.2162 31.7643ZM61.5328 33.6359H59.0519V31.9564H59.008C58.5525 32.9993 57.312 33.9378 55.7642 33.9378C53.0419 33.9378 51.9112 31.8467 51.9112 29.7171V23.1857H54.5238V28.9761C54.5238 30.2165 54.8037 31.7588 56.4832 31.7588C58.1628 31.7588 58.9202 30.3208 58.9202 28.9322V23.1857H61.5328V33.6305V33.6359ZM64.1563 22.9606H66.7689V33.4109H64.1563V22.9606ZM76.5331 26.0836C76.1214 25.4964 75.2268 25.0573 74.3761 25.0573C72.4605 25.0573 71.5 26.7752 71.5 28.4108C71.5 30.0464 72.4825 31.7643 74.4584 31.7643C75.2652 31.7643 76.1544 31.435 76.6593 30.8313L78.2894 32.4833C77.4168 33.4164 75.9787 33.9433 74.4364 33.9433C71.3464 33.9433 68.7777 31.8961 68.7777 28.4163C68.7777 24.9365 71.3025 22.8893 74.3706 22.8893C75.8964 22.8893 77.4826 23.4985 78.3114 24.5194L76.5276 26.0836H76.5331ZM79.6067 17.1811H82.2193V27.582H82.2851L86.2479 23.1857H89.6014L85.0733 27.9113L89.8868 33.6359H86.429L82.2906 28.2791H82.2248V33.6359H79.6122V17.1866L79.6067 17.1811ZM93.685 17.1811V24.5194H93.7508C94.2942 23.8443 95.337 22.8893 97.258 22.8893C100.238 22.8893 102.329 25.2823 102.329 28.3779C102.329 31.4734 100.37 33.9488 97.1922 33.9488C95.7322 33.9488 94.3161 33.2737 93.6026 32.0772H93.5587V33.6469H91.0779V17.1866H93.6904L93.685 17.1811ZM96.6653 25.0188C94.7497 25.0188 93.5971 26.7807 93.5971 28.4163C93.5971 30.0519 94.7497 31.7698 96.6653 31.7698C98.6906 31.7698 99.6675 30.008 99.6675 28.3724C99.6675 26.7368 98.6906 25.0188 96.6653 25.0188ZM109.135 22.8838C112.291 22.8838 114.816 25.0847 114.816 28.3724C114.816 31.66 112.291 33.9433 109.135 33.9433C105.979 33.9433 103.455 31.66 103.455 28.3724C103.455 25.0847 105.979 22.8838 109.135 22.8838ZM109.135 31.7643C111.205 31.7643 112.16 30.0025 112.16 28.3669C112.16 26.7313 111.205 25.0134 109.135 25.0134C107.066 25.0134 106.111 26.7313 106.111 28.3669C106.111 30.0025 107.066 31.7643 109.135 31.7643ZM121.638 22.8838C124.794 22.8838 127.319 25.0847 127.319 28.3724C127.319 31.66 124.794 33.9433 121.638 33.9433C118.482 33.9433 115.958 31.66 115.958 28.3724C115.958 25.0847 118.482 22.8838 121.638 22.8838ZM121.638 31.7643C123.708 31.7643 124.663 30.0025 124.663 28.3669C124.663 26.7313 123.708 25.0134 121.638 25.0134C119.569 25.0134 118.614 26.7313 118.614 28.3669C118.614 29.997 119.569 31.7643 121.638 31.7643ZM128.9 17.1811H131.512V27.582H131.578L135.541 23.1857H138.889L134.366 27.9113L139.174 33.6359H135.717L131.578 28.2791H131.512V33.6359H128.9V17.1866V17.1811ZM146.304 25.9739C145.849 25.3646 144.976 24.8432 144.021 24.8432C143.198 24.8432 142.341 25.1506 142.341 25.9794C142.341 26.8081 143.148 27.0057 144.603 27.3515C146.15 27.7247 147.978 28.4163 147.978 30.4635C147.978 33.0102 145.909 33.9488 143.626 33.9488C142.018 33.9488 140.338 33.3396 139.334 32.2309L141.052 30.6227C141.617 31.3637 142.599 31.929 143.73 31.929C144.493 31.929 145.409 31.6216 145.409 30.6886C145.409 29.8159 144.603 29.5579 143.016 29.1847C141.469 28.8115 139.926 28.1858 139.926 26.2263C139.926 23.8937 142.018 22.9002 144.087 22.9002C145.585 22.9002 147.155 23.4217 148.006 24.4865L146.315 25.9903L146.304 25.9739ZM67.1695 8.92628C67.1695 11.5773 69.2881 13.5093 71.983 13.5093C74.6779 13.5093 76.802 11.5773 76.802 8.92628V2.84492H74.1895V8.61892C74.1895 10.046 73.2344 11.0065 71.9776 11.0065C70.7207 11.0065 69.7602 10.0514 69.7602 8.61892V2.84492H67.1531L67.1695 8.92628ZM83.7835 5.28734H86.9011V13.3007H89.5081V5.28734H92.6202V2.84492H83.7835V5.28734ZM82.093 2.84492H79.486V13.3062H82.093V2.84492ZM56.6369 5.28734H59.7545V13.3007H62.3615V5.28734H65.4736V2.84492H56.6424V5.28734H56.6369ZM42.9484 2.84492H40.3413V13.3062H42.9484V2.84492ZM55.2648 7.21933C55.2648 4.56834 53.1407 2.63635 50.4458 2.63635C47.7509 2.63635 45.6268 4.56834 45.6268 7.21933V13.3007H48.2339V7.52669C48.2339 6.09966 49.1889 5.13915 50.4458 5.13915C51.7027 5.13915 52.6577 6.09417 52.6577 7.52669V13.3007H55.2648V7.21933Z" fill="#A0A0A0"></path></g><defs><clipPath id="clip0_3008_15671"><rect width="148" height="37.8713" fill="white" transform="translate(0 0.989746)"></rect></clipPath></defs></svg>