<svg width="499" height="144" viewBox="0 0 499 144" fill="none" xmlns="http://www.w3.org/2000/svg">
<path d="M71.7902 143.689C32.3302 143.689 0.220215 111.579 0.220215 72.1191C0.220215 32.6591 32.3302 0.539062 71.7902 0.539062C111.25 0.539062 143.36 32.6491 143.36 72.1091C143.36 111.569 111.26 143.679 71.7902 143.679" fill="white"/>
<path d="M71.79 15.5108C40.58 15.5108 15.19 40.9008 15.19 72.1108C15.19 103.321 40.58 128.701 71.79 128.701C103 128.701 128.39 103.311 128.39 72.1108C128.39 40.9108 103 15.5108 71.79 15.5108ZM71.79 137.171C35.92 137.171 6.72998 107.981 6.72998 72.1108C6.72998 36.2408 35.92 7.05078 71.79 7.05078C107.66 7.05078 136.85 36.2408 136.85 72.1108C136.85 107.981 107.67 137.171 71.79 137.171Z" fill="#00B2E3"/>
<path d="M97.0699 62.9091L102.36 72.1091L109.92 58.9691L97.0699 36.6191L76.6499 72.1091L97.0699 107.589L104.62 94.4591L91.7799 72.1091L97.0699 62.9091Z" fill="#00B2E3"/>
<path d="M75.4601 32.7109L62.6001 55.0509H52.0201L57.3101 45.8509H42.1901L29.3301 68.1809H70.1601L90.5701 32.7109H75.4601Z" fill="#00B2E3"/>
<path d="M70.1601 76.0293H29.3301L36.8901 89.1693H62.6001L67.9001 98.3693H57.3101L64.8701 111.509H90.5701L70.1601 76.0293Z" fill="#00B2E3"/>
<path d="M222.43 52.4004H232.14V67.2104C232.14 69.8404 232.28 72.2904 232.03 74.4904C231.32 80.8304 227.98 85.2804 223.83 88.3304C220.9 90.4804 217.46 91.6604 212.71 91.8404C210.28 91.9304 207.81 91.8404 205.37 91.8404H154.3V81.9204H208.93C211.04 81.9204 213.05 82.0704 214.77 81.6604C216.36 81.2904 217.64 80.5404 218.8 79.5804C219.91 78.6704 220.88 77.6104 221.52 76.2204C222.81 73.4004 222.38 68.9704 222.38 64.8304V52.5704C222.38 52.4904 222.38 52.4204 222.43 52.4104" fill="#54565A"/>
<path d="M417.24 62.4206V67.1507H452.05C452.89 67.1507 453.75 67.2406 454.32 67.0606C455.18 66.7706 456.12 65.8106 456.13 64.7106C456.13 63.4806 455.07 62.6107 454.27 62.3707C453.66 62.1807 452.87 62.2706 452.05 62.2706H417.29C417.23 62.2706 417.24 62.3506 417.24 62.4206ZM240.24 52.4007H250.01V70.3106C250.01 71.3706 249.95 72.3507 250.05 73.2607C250.16 74.1007 250.37 74.8807 250.66 75.6107C251.78 78.4407 253.93 80.4607 256.7 81.4107C258.23 81.9307 260.03 81.9206 262.09 81.9206H315.11C315.11 81.9206 315.16 81.9007 315.16 81.8707V73.2207C315.16 70.3307 315.43 67.8506 316.16 65.6406C317.58 61.3406 320.22 58.2707 323.56 55.8707C326.13 54.0207 329 52.7706 333.02 52.4606C334.31 52.3606 335.7 52.4107 337.2 52.4107H371.25C372.8 52.4107 374.2 52.3306 375.48 52.4606C379.24 52.8306 382.18 54.1507 384.74 55.9707C388.05 58.3207 390.65 61.5707 392.09 65.7907C393.53 70.0407 393.01 76.1507 393.09 81.9707C416.07 82.0607 440.14 82.0107 463.48 82.0107C465.07 82.0107 466.72 81.9206 468.4 81.9206H470.92C471.77 81.9206 472.64 82.0106 473.39 81.9206C474.49 81.7806 475.8 80.5007 475.56 79.1207C475.4 78.2107 474.56 77.3107 473.65 77.0807C473.09 76.9507 472.33 77.0306 471.59 77.0306H407.48V52.5107C407.58 52.3107 407.85 52.4007 407.99 52.4007C413.82 52.2507 419.82 52.4007 425.75 52.4007H453.27C456.31 52.4007 458.57 53.1306 460.46 54.3906C463.91 56.6806 466.68 61.0307 465.64 67.1607C468.85 67.3107 471.95 66.9207 474.7 67.2607C477.34 67.5907 479.44 68.6306 481.09 70.0606C482.65 71.4106 484 73.2807 484.76 75.6107C485.52 77.9407 485.64 80.9907 484.71 83.5507C483.91 85.7507 482.63 87.5806 480.93 88.9906C479.23 90.4106 477.18 91.4506 474.54 91.7406C471.69 92.0506 468.59 91.8406 465.48 91.8406H383.32V73.3707C383.32 67.3707 380.59 63.7607 375.73 62.5807C374.04 62.1707 372.04 62.2806 369.93 62.2806H339.55C337.32 62.2806 335.29 62.1307 333.51 62.3307C330.09 62.7107 327.67 64.7306 326.2 67.2706C325.45 68.5906 324.99 70.2007 324.9 72.0507C342.67 72.1707 360.66 72.0706 378.53 72.1006V81.9707H324.9V91.8406H263.1C260.28 91.8406 257.91 91.8706 255.76 91.4306C253.66 91.0006 251.84 90.2606 250.17 89.2906C246.97 87.4106 244.35 84.9806 242.48 81.4606C241.58 79.7606 240.86 77.8107 240.47 75.6607C240.07 73.4507 240.16 70.9206 240.16 68.1806V52.5606C240.16 52.4806 240.16 52.4107 240.21 52.4007" fill="#54565A"/>
<path d="M490.49 58.4601H491.72C491.97 58.4601 492.22 58.4601 492.47 58.4301C492.71 58.4201 492.93 58.3701 493.11 58.2801C493.29 58.2001 493.44 58.0801 493.54 57.9101C493.66 57.7401 493.71 57.5001 493.71 57.1901C493.71 56.9301 493.66 56.7301 493.56 56.5801C493.46 56.4301 493.34 56.3201 493.18 56.2301C493.02 56.1501 492.85 56.0901 492.64 56.0601C492.44 56.0301 492.24 56.0101 492.04 56.0101H490.48V58.4601H490.49ZM489.31 55.0501H492.24C493.15 55.0501 493.82 55.2401 494.24 55.6001C494.68 55.9701 494.9 56.5201 494.9 57.2501C494.9 57.9401 494.7 58.4401 494.32 58.7701C493.94 59.0901 493.47 59.2801 492.9 59.3401L495.07 62.7301H493.81L491.74 59.4301H490.49V62.7301H489.31V55.0501ZM486.89 61.1101C487.16 61.8001 487.54 62.3901 488.02 62.9001C488.5 63.4001 489.07 63.7901 489.72 64.0801C490.37 64.3601 491.08 64.5101 491.84 64.5101C492.6 64.5101 493.29 64.3701 493.95 64.0801C494.59 63.7901 495.16 63.4001 495.63 62.9001C496.11 62.3901 496.49 61.8001 496.77 61.1101C497.04 60.4301 497.18 59.6701 497.18 58.8701C497.18 58.0701 497.04 57.3601 496.77 56.6701C496.49 55.9901 496.12 55.4101 495.63 54.9101C495.16 54.4101 494.59 54.0201 493.95 53.7301C493.3 53.4401 492.6 53.2901 491.84 53.2901C491.08 53.2901 490.37 53.4401 489.72 53.7301C489.06 54.0101 488.49 54.4101 488.02 54.9101C487.54 55.4101 487.17 55.9901 486.89 56.6701C486.62 57.3501 486.49 58.0801 486.49 58.8701C486.49 59.6601 486.62 60.4201 486.89 61.1101ZM485.82 56.2801C486.17 55.4901 486.64 54.8001 487.23 54.2001C487.82 53.6201 488.52 53.1601 489.31 52.8201C490.11 52.4901 490.95 52.3301 491.84 52.3301C492.73 52.3301 493.57 52.5001 494.36 52.8201C495.16 53.1601 495.84 53.6201 496.43 54.2001C497.03 54.7901 497.49 55.4801 497.85 56.2801C498.19 57.0801 498.37 57.9401 498.37 58.8601C498.37 59.7801 498.19 60.6801 497.85 61.4901C497.49 62.2901 497.03 62.9901 496.43 63.5801C495.85 64.1701 495.16 64.6301 494.36 64.9701C493.57 65.3001 492.73 65.4701 491.84 65.4701C490.95 65.4701 490.11 65.3001 489.31 64.9701C488.52 64.6301 487.82 64.1701 487.23 63.5801C486.63 62.9901 486.16 62.2901 485.82 61.4901C485.47 60.6901 485.29 59.8101 485.29 58.8601C485.29 57.9101 485.47 57.0701 485.82 56.2801Z" fill="#54565A"/>
</svg>
