<svg width="150" height="23" viewBox="0 0 150 23" fill="none" xmlns="http://www.w3.org/2000/svg">
<path d="M40.3342 0.875H32.7316C32.2607 0.875 31.8906 1.245 31.8906 1.716V21.2607C31.8906 21.7317 32.2607 22.1017 32.7316 22.1017H35.0191C35.4901 22.1017 35.8601 21.7317 35.8601 21.2607V20.7898V14.9701H40.5697C44.7747 14.9701 47.735 12.2453 47.735 8.0403C47.735 3.9362 45.3129 0.875 40.3342 0.875ZM39.8296 11.6061H35.8601V4.2053H39.6951C41.9826 4.2053 43.5637 5.08 43.5637 8.0066C43.5637 10.126 42.3526 11.6061 39.8296 11.6061ZM63.0411 8.5785V7.8721C63.0411 7.4011 62.6711 7.0311 62.2001 7.0311H60.249C59.7781 7.0311 59.408 7.4011 59.408 7.8721V8.5785V15.1383C59.408 16.9548 58.567 18.9732 55.8422 18.9732C53.992 18.9732 53.151 18.0986 53.151 16.0129V7.8721C53.151 7.4011 52.781 7.0311 52.31 7.0311H50.3589C49.8879 7.0311 49.5179 7.4011 49.5179 7.8721V8.2085V17.0221C49.5179 21.3953 52.4782 22.4718 55.0348 22.4718C57.0869 22.4718 58.567 21.6644 59.3744 20.6216H59.4417V21.2271V21.2607C59.4417 21.7317 59.8117 22.1017 60.2826 22.1017H62.2338C62.7047 22.1017 63.0748 21.7317 63.0748 21.2607V21.2271L63.0411 8.5785ZM73.4022 6.6611C71.8211 6.6274 70.2737 7.1993 69.0963 8.3094V3.1961V1.716C69.0963 1.245 68.7262 0.875 68.2553 0.875H66.3042C65.8332 0.875 65.4632 1.245 65.4632 1.716V3.1961V18.8723V21.2607C65.4632 21.7317 65.8332 22.1017 66.3042 22.1017H68.2553C68.7262 22.1017 69.0963 21.7317 69.0963 21.2607V20.6552H69.1636C70.0718 21.7317 71.2156 22.4718 73.4022 22.4718C77.3044 22.4718 79.9956 18.906 79.9956 14.5664C79.9956 10.2269 77.3044 6.6611 73.4022 6.6611ZM72.5948 19.1414C69.8364 19.1414 69.029 16.753 69.029 14.5664C69.029 12.3798 69.8364 9.9914 72.5948 9.9914C75.3533 9.9914 76.127 12.3798 76.1606 14.5664C76.127 16.753 75.3197 19.1414 72.5948 19.1414Z" fill="#4FC8ED"/>
<path d="M102.231 21.0589V21.2607C102.231 21.7317 101.861 22.1017 101.39 22.1017H99.2373C98.7664 22.1017 98.3963 21.7317 98.3963 21.2607V4.609V4.4072H98.3291L96.6134 11.7407L95.1669 17.8968L94.3932 21.1935L94.3596 21.2944C94.2586 21.7653 93.9895 22.1354 93.5186 22.1354H91.0629C90.6255 22.0681 90.2555 21.7317 90.2219 21.2944V21.2607L86.286 4.609H86.1851V21.0925V21.2607C86.1851 21.7317 85.815 22.1017 85.3441 22.1017H83.1911C82.7202 22.1017 82.3501 21.7317 82.3501 21.2607V1.6824C82.3838 1.2114 82.7538 0.875 83.1911 0.875H87.7998C88.1698 0.875 88.4726 1.1441 88.5735 1.4805V1.5478V1.5814L92.3075 17.3585H92.3748L96.0752 1.5814C96.1425 1.2114 96.4789 0.9086 96.8825 0.9086H101.323C101.794 0.9086 102.164 1.2787 102.164 1.7496L102.231 21.0589ZM127.36 6.9974H125.51V2.5234C125.51 2.0524 125.14 1.6824 124.669 1.6824H122.718C122.247 1.6824 121.877 2.0524 121.877 2.5234V6.9974H120.027C119.657 6.9974 119.354 7.3002 119.354 7.6702V9.2177C119.354 9.5877 119.657 9.8905 120.027 9.8905H121.877V21.2607C121.877 21.7317 122.247 22.1017 122.718 22.1017H124.669C125.14 22.1017 125.51 21.7317 125.51 21.2607V9.9241H127.36C127.73 9.9241 128.033 9.6214 128.033 9.2513V7.7039C128.067 7.3338 127.764 7.0311 127.36 6.9974ZM133.786 7.9057C133.786 7.4348 133.416 7.0647 132.945 7.0647H131.027C130.556 7.0647 130.153 7.4348 130.153 7.9057V21.2607C130.153 21.7317 130.523 22.1017 130.994 22.1017H132.911C133.382 22.1017 133.752 21.7317 133.752 21.2607L133.786 7.9057ZM133.819 2.7252C133.752 1.6824 132.877 0.908601 131.835 0.975901C130.792 1.0432 130.018 1.9178 130.085 2.9607C130.153 3.9362 130.96 4.7436 131.969 4.7099C133.012 4.6763 133.853 3.8017 133.819 2.7252ZM149.058 16.383H147.511C146.939 16.383 146.602 16.753 146.3 17.2912L146.266 17.3585C145.694 18.435 144.584 19.1078 143.373 19.1078C140.749 19.1078 139.437 16.8876 139.437 14.5328C139.437 12.178 140.749 9.9578 143.373 9.9578C144.584 9.9914 145.694 10.6642 146.266 11.707L146.333 11.8416C146.636 12.3798 146.972 12.7499 147.544 12.7499H149.092C149.832 12.7499 150.135 12.2789 150 11.6734V11.6397C149.865 11.0679 149.63 10.496 149.361 9.9914L149.327 9.8905C148.284 8.0739 146.535 6.6611 143.44 6.6611C138.529 6.6611 135.703 10.0587 135.703 14.5664C135.703 19.0741 138.529 22.4718 143.44 22.4718C146.535 22.4718 148.284 21.0253 149.327 19.2423L149.361 19.1414C149.63 18.6032 149.865 18.065 150 17.4931V17.4594C150.101 16.8539 149.798 16.383 149.058 16.383ZM117.941 19.4105V21.2607C117.941 21.7317 117.571 22.1017 117.1 22.1017H115.149C114.678 22.1017 114.308 21.7317 114.308 21.2607V20.7561C112.929 21.8999 111.18 22.5054 109.363 22.4718C106.504 22.4718 104.216 20.6552 104.216 17.7286C104.216 14.8019 106.571 13.4563 108.825 13.019L110.339 12.7162C111.651 12.4471 113.366 12.1443 114.275 11.8079V11.3706C114.275 9.8905 112.996 9.4532 111.415 9.4532C109.565 9.4532 108.758 9.8905 108.589 11.3033C108.556 11.4379 108.488 11.5725 108.388 11.6734V11.707C108.219 11.8752 107.95 11.9761 107.715 11.9761L105.797 11.8752C105.125 11.8416 104.99 11.4715 105.024 11.0006V10.967C105.36 7.8721 108.32 6.6611 111.449 6.6611C114.712 6.6611 117.941 7.3338 117.941 11.6061V19.4105ZM114.308 14.5664C113.77 14.8355 113.164 15.0037 112.593 15.1046L110.574 15.5083C109.195 15.7774 108.051 16.1475 108.051 17.594C108.051 18.7378 109.094 19.4778 110.406 19.4778C112.122 19.4778 114.275 18.6368 114.275 16.7194L114.308 14.5664Z" fill="#231F20"/>
<path d="M21.2604 0.875H0V22.1354H21.2604V0.875Z" fill="#4FC8ED"/>
</svg>
