<svg xmlns="http://www.w3.org/2000/svg" width="123" height="61" viewBox="0 0 123 61" fill="none"><path d="M62 60.9934H0V-0.0065918H123L62 60.9934ZM16.6387 11.4934C11.5024 11.4934 7.17693 13.1062 4.47363 15.7942C2.58133 17.6758 1.77033 20.0954 1.5 22.7834C1.50008 26.5465 2.85166 29.2347 5.8252 31.385C8.25815 32.9978 11.2323 34.0727 13.9355 34.8792C17.4497 35.9543 20.1523 37.0298 20.1523 38.9114C19.8819 41.3304 17.1794 41.8684 15.2871 41.8684C12.0432 42.1372 9.33912 41.5992 5.28418 39.1799L1.5 46.4377C5.55494 48.857 9.88034 49.9319 15.0166 49.9319C18.5309 49.9319 23.9375 48.8572 26.9111 46.1692L26.3701 48.5881H36.6426L38.5352 44.0188C42.5899 45.094 47.1854 45.3626 51.2402 44.0188L52.5918 48.5881H70.9746V37.8362H74.7588C84.2203 37.8362 89.8974 33.2664 89.8975 25.2024C89.8975 16.0632 84.4912 12.3001 72.8672 12.3H60.7021V40.7932L50.1592 12.3H39.6162L30.6953 35.9543C29.6139 30.0408 23.3962 27.8904 18.5303 26.2776C15.2865 25.2024 11.7726 23.8583 11.7725 21.9768C11.7725 20.6328 13.6647 19.2892 17.1787 19.5579C19.6116 19.8267 21.7745 19.8265 26.0996 21.9768L30.4248 14.719C26.37 12.5687 20.9638 11.4934 16.6387 11.4934ZM48.8076 35.9543C46.1043 36.7608 43.4007 36.7608 40.9678 35.9543L44.7529 23.8586H45.0234L48.8076 35.9543ZM73.6777 20.095C77.1919 20.095 79.8953 21.1702 79.8955 24.6643C79.8955 28.4275 77.192 29.7717 73.6777 29.7717H70.9746V20.095H73.6777Z" fill="white"></path></svg>