<svg width="505" height="102" viewBox="0 0 505 102" fill="none" xmlns="http://www.w3.org/2000/svg">
<path d="M359.62 11.4194V3.07942H313.62V31.2894H321V70.2894H313.61V98.4994H374.75V70.2694H359.62V64.6494C359.62 52.2894 362.257 43.3761 367.53 37.9094C372.8 32.4594 383.53 31.2894 396.19 31.2894V3.06943C392.241 2.26823 388.219 1.87614 384.19 1.89942C366.92 1.89942 360.75 10.2494 359.62 11.4194Z" fill="#282827"/>
<path d="M496.66 70.2704V43.2204C496.682 38.2274 496.297 33.241 495.51 28.3104C494.808 23.7228 493.2 19.3208 490.78 15.3604C488.34 11.5004 481.63 1.90039 466 1.90039C458.772 1.95369 451.763 4.38952 446.06 8.8304V3.0804H400.06V31.2904H407.68V70.2904H400.06V98.5004H452.41V70.2704H446.1V41.5004C446.1 38.1204 446.82 35.6904 448.27 34.1904C449.72 32.6904 451.87 31.9604 454.75 31.9604C457.63 31.9604 459.8 32.7004 461.24 34.1904C462.68 35.6804 463.4 38.1204 463.4 41.5004V70.3204H457.1V98.5004H504.1V70.2704H496.66Z" fill="#282827"/>
<path d="M254.31 3.08008H200.77V31.2201H208L226.34 98.5001H284.34L302.17 31.3101H309.57V3.08008H259.11V31.2901H268.49V42.9601C268.49 42.9601 268.35 52.5701 266.82 56.9601C265.41 60.9601 262 67.9001 257.09 70.3601C252.18 67.9001 248.77 61.0101 247.36 56.9601C245.83 52.5401 245.7 43.3901 245.69 42.9601V31.2901H254.31V3.08008Z" fill="#282827"/>
<path d="M184.55 13.0696C179.837 8.7759 174.233 5.57634 168.14 3.69955C154.104 -0.428495 139.176 -0.428495 125.14 3.69955C119.045 5.57146 113.44 8.7716 108.73 13.0696C104.085 17.427 100.523 22.8103 98.33 28.7895C95.7982 35.8422 94.5748 43.2976 94.72 50.7895C94.5612 58.3085 95.7848 65.7927 98.33 72.8695C100.55 78.8192 104.124 84.1704 108.77 88.4995C113.483 92.7907 119.087 95.9869 125.18 97.8596C139.214 101.999 154.146 101.999 168.18 97.8596C174.257 95.977 179.845 92.7816 184.55 88.4995C189.18 84.1627 192.737 78.8082 194.94 72.8596C197.353 66.6196 198.557 59.2595 198.55 50.7795C198.7 43.2873 197.477 35.8309 194.94 28.7796C192.749 22.8045 189.191 17.4247 184.55 13.0696ZM156.62 59.3695C156.62 63.2695 155.79 66.0695 154.13 67.7895C152.47 69.5095 149.98 70.3695 146.66 70.3695C143.34 70.3695 140.84 69.5095 139.18 67.7895C137.52 66.0695 136.69 63.2695 136.69 59.3695V42.1896C136.69 38.3029 137.52 35.4962 139.18 33.7696C140.84 32.0496 143.34 31.1896 146.66 31.1896C149.98 31.1896 152.47 32.0496 154.13 33.7696C155.79 35.4896 156.62 38.2996 156.62 42.1896V59.3695Z" fill="#282827"/>
<path d="M81.2601 45.6508C74.9467 40.3775 65.1401 37.1142 51.8401 35.8608C49.1734 35.6275 46.9934 35.3708 45.3001 35.0908C43.9427 34.8624 42.6053 34.528 41.3001 34.0908C37.9501 32.9908 35.9501 28.3808 41.8101 26.5508C45.143 25.738 48.5714 25.3847 52.0001 25.5008H53.3001V32.1508H84.9001V3.82083C84.9001 3.82083 62.5501 0.610828 44.7701 0.610828C38.0239 0.482409 31.2926 1.29353 24.7701 3.02083C19.8229 4.31663 15.176 6.56531 11.0901 9.64083C7.68886 12.2513 5.01936 15.6959 3.34006 19.6408C1.71685 23.5995 0.900891 27.8425 0.940067 32.1208C0.920067 41.7075 4.32006 49.1675 11.1401 54.5008C17.9601 59.8342 27.3401 63.2742 39.2801 64.8208C44.6734 65.6208 48.2301 66.3942 49.9501 67.1408C50.6629 67.385 51.288 67.834 51.7469 68.4317C52.2058 69.0293 52.4782 69.7491 52.5301 70.5008C52.5301 71.8808 51.7201 72.9708 50.1201 73.7708C48.5201 74.5708 45.1801 74.9708 40.1201 74.9708H37.5001V70.5008H5.84006V97.9108C5.84006 97.9108 23.0601 100.261 38.9101 100.911C65.1201 102.281 75.0501 96.4508 80.2201 92.2608C86.8101 86.9208 90.7201 79.0108 90.7201 68.1308C90.7267 58.4108 87.5734 50.9175 81.2601 45.6508Z" fill="#282827"/>
</svg>
