<svg xmlns="http://www.w3.org/2000/svg" width="281.046" height="100.255" viewBox="0 0 281.046 100.255"><g id="Group_31" data-name="Group 31" transform="translate(200 -288.872)"><path id="Path_138" data-name="Path 138" d="M652.771,134.412a8.728,8.728,0,0,1-3.983-.807,6.543,6.543,0,0,1-2.485-2.124,8.514,8.514,0,0,1-1.274-2.91,13.983,13.983,0,0,1-.372-3.186V111.428h5.608V123.94a10.275,10.275,0,0,0,.361,2.793,3.972,3.972,0,0,0,1.328,2.071,4.218,4.218,0,0,0,2.729.786,4.428,4.428,0,0,0,2.889-.988,6.635,6.635,0,0,0,1.88-2.5,7.481,7.481,0,0,0,.669-3.059l1.912,1.274a11.608,11.608,0,0,1-.638,3.876,9.867,9.867,0,0,1-1.848,3.218,8.625,8.625,0,0,1-2.921,2.2,9.02,9.02,0,0,1-3.855.8m7.349-22.984h5.587v22.559h-5.587Z" transform="translate(-665.04 208.491)" fill="#1c1c1c"></path><path id="Path_139" data-name="Path 139" d="M745.27,133.464a11.468,11.468,0,0,1-4.44-.8,6.8,6.8,0,0,1-2.995-2.3,6.06,6.06,0,0,1-1.084-3.632,5.709,5.709,0,0,1,1.264-3.813,8.148,8.148,0,0,1,3.409-2.315,17.766,17.766,0,0,1,4.758-1.052,50.571,50.571,0,0,0,5.406-.733q1.539-.351,1.54-1.136v-.043a2.541,2.541,0,0,0-1.339-2.294,7.356,7.356,0,0,0-3.781-.807,7.166,7.166,0,0,0-3.94.9,3.174,3.174,0,0,0-1.37,2.857h-5.523a7.152,7.152,0,0,1,1.413-4.493,8.74,8.74,0,0,1,3.877-2.793,15.352,15.352,0,0,1,5.586-.956,15.661,15.661,0,0,1,5.332.871,8.8,8.8,0,0,1,3.887,2.634,6.647,6.647,0,0,1,1.466,4.4v10.281q0,.807.053,1.583a7.023,7.023,0,0,0,.223,1.391,4.785,4.785,0,0,0,.51,1.147,4.077,4.077,0,0,0,.467.637h-5.523a3.445,3.445,0,0,1-.414-.584,5.768,5.768,0,0,1-.478-1.009,7.9,7.9,0,0,1-.319-1.37,11.362,11.362,0,0,1-.106-1.625l1.1.765a6.237,6.237,0,0,1-1.943,2.262,9.847,9.847,0,0,1-3.112,1.5,13.887,13.887,0,0,1-3.93.531m1.359-4.4a8.611,8.611,0,0,0,3.229-.595,5.4,5.4,0,0,0,2.4-1.837,5.262,5.262,0,0,0,.913-3.2v-3.016l1.359,1.529a18.208,18.208,0,0,1-3.271.839q-1.912.329-3.866.52a10.984,10.984,0,0,0-3.77.871,2.165,2.165,0,0,0-1.264,2.082,2.351,2.351,0,0,0,1.062,2.1,5.886,5.886,0,0,0,3.208.7" transform="translate(-731.475 209.48)" fill="#1c1c1c"></path><path id="Path_140" data-name="Path 140" d="M844.772,130.767a14.132,14.132,0,0,1,3.505.744,5.132,5.132,0,0,1,2.358,1.646,4.635,4.635,0,0,1,.85,2.921A5.008,5.008,0,0,1,850.1,139.6a8.927,8.927,0,0,1-4.047,2.294,22.88,22.88,0,0,1-6.553.807q-5.651,0-8.688-1.625t-3.037-4.408a4.952,4.952,0,0,1,.191-1.423,4.128,4.128,0,0,1,.467-1.062l5.119.743a2.049,2.049,0,0,0-.255.542,2.785,2.785,0,0,0-.127.9q0,1.317,1.773,1.9a15.534,15.534,0,0,0,4.726.584,18.505,18.505,0,0,0,3.622-.3,5.712,5.712,0,0,0,2.209-.85,1.59,1.59,0,0,0,.754-1.3,1.35,1.35,0,0,0-1-1.423,10.561,10.561,0,0,0-2.379-.425l-8.56-.786a7.311,7.311,0,0,1-3.77-1.359,3.559,3.559,0,0,1-1.477-2.974,3.817,3.817,0,0,1,.606-2.082,6.685,6.685,0,0,1,1.391-1.6,3.871,3.871,0,0,1,1.338-.8l3.186,1.572a2.263,2.263,0,0,0-1.051.573,1.538,1.538,0,0,0-.605,1.211,1.309,1.309,0,0,0,.595,1.094,5.062,5.062,0,0,0,2.294.605Zm2.528-20.328h5.013l-2.039,8.752a13.713,13.713,0,0,1-1.848,4.418,9.027,9.027,0,0,1-3.4,3.08,11.357,11.357,0,0,1-5.353,1.126,14.02,14.02,0,0,1-5.788-1.094,8.582,8.582,0,0,1-3.749-3.08,8.086,8.086,0,0,1-1.318-4.578,8.26,8.26,0,0,1,1.349-4.684,9.132,9.132,0,0,1,3.718-3.176,12.146,12.146,0,0,1,5.363-1.147,11.334,11.334,0,0,1,4.354.8,8.433,8.433,0,0,1,3.09,2.071,4.393,4.393,0,0,1,1.243,2.719l-1.253.233ZM839.653,123.5a6.89,6.89,0,0,0,2.825-.531,4.179,4.179,0,0,0,1.847-1.54,4.877,4.877,0,0,0,0-4.9,4.225,4.225,0,0,0-1.847-1.561,6.718,6.718,0,0,0-2.8-.542,6.642,6.642,0,0,0-2.783.552,4.461,4.461,0,0,0-1.9,1.583,4.731,4.731,0,0,0-.021,4.886,4.166,4.166,0,0,0,1.869,1.529,7.029,7.029,0,0,0,2.815.52" transform="translate(-797.139 209.48)" fill="#1c1c1c"></path><path id="Path_141" data-name="Path 141" d="M925.7,123.523v-3.972h15.783l-.638,1.062v-.552a5.954,5.954,0,0,0-.658-2.751,5.124,5.124,0,0,0-2-2.082,6.561,6.561,0,0,0-3.4-.8,6.978,6.978,0,0,0-3.537.86,5.8,5.8,0,0,0-2.315,2.474,8.467,8.467,0,0,0-.818,3.866,9.268,9.268,0,0,0,.786,3.983,5.643,5.643,0,0,0,2.3,2.549,7.27,7.27,0,0,0,3.707.882,10.5,10.5,0,0,0,2.57-.276,5.482,5.482,0,0,0,1.774-.754,3.7,3.7,0,0,0,1.041-1.03,2.616,2.616,0,0,0,.414-1.1h5.565a6.408,6.408,0,0,1-.945,2.772,8.693,8.693,0,0,1-2.283,2.443,11.668,11.668,0,0,1-3.558,1.742,16.122,16.122,0,0,1-4.769.648A13.032,13.032,0,0,1,928.374,132a10.691,10.691,0,0,1-4.238-4.142,12.957,12.957,0,0,1,.022-12.214,10.774,10.774,0,0,1,4.28-4.111,13.051,13.051,0,0,1,6.287-1.476,12.776,12.776,0,0,1,6.32,1.487,10.3,10.3,0,0,1,4.11,4.131,12.627,12.627,0,0,1,1.445,6.15q0,.446-.021.956a6,6,0,0,1-.064.743Z" transform="translate(-865.554 209.48)" fill="#1c1c1c"></path><g id="Group_2" data-name="Group 2" transform="translate(-96.312 356.479)"><path id="Path_142" data-name="Path 142" d="M389.135,263.356a14.143,14.143,0,0,1,3.5.743A5.132,5.132,0,0,1,395,265.745a4.637,4.637,0,0,1,.85,2.921,5.008,5.008,0,0,1-1.381,3.526,8.928,8.928,0,0,1-4.047,2.294,22.881,22.881,0,0,1-6.553.807q-5.651,0-8.688-1.625t-3.038-4.408a4.943,4.943,0,0,1,.191-1.424,4.109,4.109,0,0,1,.467-1.062l5.119.743a2.04,2.04,0,0,0-.255.542,2.793,2.793,0,0,0-.128.9q0,1.317,1.774,1.9a15.533,15.533,0,0,0,4.726.584,18.5,18.5,0,0,0,3.622-.3,5.715,5.715,0,0,0,2.209-.85,1.59,1.59,0,0,0,.754-1.3,1.35,1.35,0,0,0-1-1.423,10.556,10.556,0,0,0-2.379-.425l-8.56-.786a7.311,7.311,0,0,1-3.77-1.359,3.559,3.559,0,0,1-1.476-2.974,3.818,3.818,0,0,1,.605-2.082,6.7,6.7,0,0,1,1.391-1.6,3.872,3.872,0,0,1,1.338-.8l3.186,1.572a2.27,2.27,0,0,0-1.051.574,1.538,1.538,0,0,0-.605,1.211,1.309,1.309,0,0,0,.595,1.094,5.061,5.061,0,0,0,2.294.605Zm2.528-20.328h5.013l-2.039,8.752a13.7,13.7,0,0,1-1.848,4.418,9.027,9.027,0,0,1-3.4,3.08,11.357,11.357,0,0,1-5.353,1.126,14.021,14.021,0,0,1-5.788-1.094,8.585,8.585,0,0,1-3.749-3.08,8.086,8.086,0,0,1-1.317-4.577,8.258,8.258,0,0,1,1.349-4.684,9.131,9.131,0,0,1,3.717-3.176,12.147,12.147,0,0,1,5.364-1.147,11.329,11.329,0,0,1,4.354.8,8.428,8.428,0,0,1,3.09,2.071,4.392,4.392,0,0,1,1.243,2.719l-1.253.234Zm-7.647,13.064a6.888,6.888,0,0,0,2.825-.531,4.177,4.177,0,0,0,1.848-1.54,4.878,4.878,0,0,0,0-4.9,4.222,4.222,0,0,0-1.848-1.561,6.716,6.716,0,0,0-2.8-.542,6.636,6.636,0,0,0-2.783.553,4.456,4.456,0,0,0-1.9,1.582,4.73,4.73,0,0,0-.021,4.886,4.168,4.168,0,0,0,1.869,1.529,7.027,7.027,0,0,0,2.815.521" transform="translate(-372.142 -242.645)" fill="#1c1c1c"></path><path id="Path_143" data-name="Path 143" d="M473.766,265.586V243.027h5.587v7.5l-1.3-.722a10.665,10.665,0,0,1,.786-2.772,7.736,7.736,0,0,1,1.529-2.294,6.671,6.671,0,0,1,2.315-1.54,8.178,8.178,0,0,1,3.1-.552,9.253,9.253,0,0,1,2.177.2,4.132,4.132,0,0,1,.988.329l-1.02,5.119a4.039,4.039,0,0,0-.86-.372,5.463,5.463,0,0,0-1.731-.223,6.354,6.354,0,0,0-2.878.584,4.81,4.81,0,0,0-1.837,1.572,6.649,6.649,0,0,0-.977,2.167,9.548,9.548,0,0,0-.3,2.347v11.216Z" transform="translate(-445.451 -242.645)" fill="#1c1c1c"></path><path id="Path_144" data-name="Path 144" d="M547.909,266.032a12.822,12.822,0,0,1-6.287-1.5,10.916,10.916,0,0,1-4.259-4.153,11.883,11.883,0,0,1-1.54-6.075,11.755,11.755,0,0,1,1.54-6.064,10.91,10.91,0,0,1,4.259-4.11,14.036,14.036,0,0,1,12.575,0,10.912,10.912,0,0,1,4.259,4.11,11.756,11.756,0,0,1,1.54,6.064,11.885,11.885,0,0,1-1.54,6.075,10.917,10.917,0,0,1-4.259,4.153,12.82,12.82,0,0,1-6.287,1.5m0-4.567a6.3,6.3,0,0,0,3.377-.892,6.066,6.066,0,0,0,2.252-2.5,8.288,8.288,0,0,0,.807-3.77,8.156,8.156,0,0,0-.807-3.749,5.954,5.954,0,0,0-2.252-2.454,6.965,6.965,0,0,0-6.744,0,5.933,5.933,0,0,0-2.262,2.454,8.154,8.154,0,0,0-.807,3.749,8.286,8.286,0,0,0,.807,3.77,6.043,6.043,0,0,0,2.262,2.5,6.309,6.309,0,0,0,3.367.892" transform="translate(-490.217 -242.645)" fill="#1c1c1c"></path><path id="Path_145" data-name="Path 145" d="M647.238,267a8.727,8.727,0,0,1-3.983-.807,6.542,6.542,0,0,1-2.485-2.124,8.515,8.515,0,0,1-1.274-2.91,13.961,13.961,0,0,1-.372-3.186V244.017h5.608v12.512a10.278,10.278,0,0,0,.361,2.793,3.977,3.977,0,0,0,1.328,2.071,4.221,4.221,0,0,0,2.729.786,4.429,4.429,0,0,0,2.889-.988,6.636,6.636,0,0,0,1.88-2.5,7.482,7.482,0,0,0,.669-3.059l1.912,1.275a11.616,11.616,0,0,1-.637,3.877,9.871,9.871,0,0,1-1.848,3.218,8.621,8.621,0,0,1-2.921,2.2,9.025,9.025,0,0,1-3.855.8m7.349-22.984h5.587v22.559h-5.587Z" transform="translate(-564.736 -243.635)" fill="#1c1c1c"></path><path id="Path_146" data-name="Path 146" d="M734.04,243.027h5.587v31.841H734.04Zm12.7,23.026a9.172,9.172,0,0,1-4.875-1.37,10.369,10.369,0,0,1-3.611-3.749,10.531,10.531,0,0,1-1.37-5.353v-.3l2.761-.064v.213a5.309,5.309,0,0,0,.828,2.942,5.944,5.944,0,0,0,2.156,2.018,5.945,5.945,0,0,0,7-.945q1.72-1.678,1.72-5.2,0-3.547-1.71-5.194a5.8,5.8,0,0,0-4.174-1.646,5.873,5.873,0,0,0-2.814.712,5.957,5.957,0,0,0-2.167,1.965,5.145,5.145,0,0,0-.839,2.931l-2.761-.127a10.23,10.23,0,0,1,1.37-5.31,10.007,10.007,0,0,1,3.611-3.622,9.508,9.508,0,0,1,4.875-1.306,10.215,10.215,0,0,1,5.109,1.338,10.024,10.024,0,0,1,3.824,3.93,12.761,12.761,0,0,1,1.455,6.33,13.488,13.488,0,0,1-1.423,6.479,9.837,9.837,0,0,1-3.781,3.983,10.256,10.256,0,0,1-5.183,1.349" transform="translate(-633.206 -242.645)" fill="#1c1c1c"></path></g><g id="Group_1" data-name="Group 1" transform="translate(-200 288.872)"><path id="Path_128" data-name="Path 128" d="M102.167,180.659l-8.193,8.193a1.367,1.367,0,0,1-1.933,0l-12.9-12.9a1.367,1.367,0,0,0-1.933,0l-7.724,7.724a1.367,1.367,0,0,1-1.933,0l-8.156-8.156a1.367,1.367,0,0,1,0-1.933l17.7-17.7a1.367,1.367,0,0,1,1.926-.007l23.136,22.842a1.367,1.367,0,0,1,.007,1.94" transform="translate(-42.557 -112.162)" fill="#f9dc5c"></path><path id="Path_129" data-name="Path 129" d="M8.593,108.992.4,100.8a1.367,1.367,0,0,1,0-1.933l9.818-9.818a1.367,1.367,0,0,0,0-1.933L2.495,79.39a1.367,1.367,0,0,1,0-1.933L10.65,69.3a1.367,1.367,0,0,1,1.933,0L30.286,87a1.367,1.367,0,0,1,.007,1.926l-19.76,20.054a1.367,1.367,0,0,1-1.94.007" transform="translate(0 -49.704)" fill="#f9dc5c"></path><path id="Path_130" data-name="Path 130" d="M40.054,8.594,48.246.4A1.367,1.367,0,0,1,50.18.4L63.316,13.538a1.367,1.367,0,0,0,1.933,0l7.724-7.724a1.367,1.367,0,0,1,1.933,0l8.156,8.156a1.367,1.367,0,0,1,0,1.933l-17.7,17.7a1.367,1.367,0,0,1-1.926.007L40.061,10.534a1.367,1.367,0,0,1-.007-1.94" transform="translate(-28.605 -0.001)" fill="#f9dc5c"></path><path id="Path_131" data-name="Path 131" d="M168.017,61.7l8.193,8.193a1.367,1.367,0,0,1,0,1.933l-9.818,9.818a1.367,1.367,0,0,0,0,1.933l7.724,7.724a1.367,1.367,0,0,1,0,1.933l-8.156,8.156a1.367,1.367,0,0,1-1.933,0l-17.7-17.7a1.367,1.367,0,0,1-.007-1.926L166.077,61.7a1.367,1.367,0,0,1,1.94-.007" transform="translate(-105.266 -44.217)" fill="#f9dc5c"></path></g><g id="Group_3" data-name="Group 3" transform="translate(-96.861 295.972)"><path id="Path_132" data-name="Path 132" d="M374.891,51.033a3.8,3.8,0,0,1-.869-.1,2,2,0,0,1-.765-.358,1.739,1.739,0,0,1-.539-.734,3.205,3.205,0,0,1-.2-1.227V42.63h-2.345V41.271h1.5a3.926,3.926,0,0,0,.48-.023.367.367,0,0,0,.249-.118.554.554,0,0,0,.1-.3q.018-.2.018-.566V38.084h1.549v3.187h3.007V42.63h-3.007v5.406a3.148,3.148,0,0,0,.186,1.2.809.809,0,0,0,.838.435,2.619,2.619,0,0,0,.5-.045,2.227,2.227,0,0,0,.353-.09v1.34a2.866,2.866,0,0,1-.43.1,3.521,3.521,0,0,1-.62.05" transform="translate(-370.173 -36.735)" fill="#1c1c1c"></path><path id="Path_133" data-name="Path 133" d="M402.024,33.242h1.539V47.4h-1.539ZM408.915,47.4V41.9a3.184,3.184,0,0,0-.593-2.092,2.32,2.32,0,0,0-1.879-.706,3.234,3.234,0,0,0-1.508.335,2.533,2.533,0,0,0-1.009.914,2.425,2.425,0,0,0-.363,1.313l-.978-.3a3.429,3.429,0,0,1,.539-1.879,3.887,3.887,0,0,1,1.476-1.349,4.419,4.419,0,0,1,2.123-.5,3.609,3.609,0,0,1,2.73,1.042,3.985,3.985,0,0,1,1,2.88V47.4Z" transform="translate(-393.15 -33.242)" fill="#1c1c1c"></path><path id="Path_134" data-name="Path 134" d="M441.437,54.572V53.2h7.435l-.272.453v-.2a3.343,3.343,0,0,0-.349-1.526,2.691,2.691,0,0,0-1.037-1.109,3.234,3.234,0,0,0-1.7-.416,3.639,3.639,0,0,0-1.8.434,3.061,3.061,0,0,0-1.213,1.227,3.87,3.87,0,0,0-.435,1.888,4.1,4.1,0,0,0,.421,1.92,2.953,2.953,0,0,0,1.2,1.241,3.728,3.728,0,0,0,1.847.435,4.9,4.9,0,0,0,1.322-.159,2.9,2.9,0,0,0,.928-.426,2.011,2.011,0,0,0,.557-.584,1.576,1.576,0,0,0,.227-.634H450.1a2.81,2.81,0,0,1-.362,1.15,3.554,3.554,0,0,1-.9,1.037,4.527,4.527,0,0,1-1.422.747,6.127,6.127,0,0,1-1.938.281,5.039,5.039,0,0,1-2.554-.634,4.551,4.551,0,0,1-1.734-1.757,5.617,5.617,0,0,1,0-5.175,4.575,4.575,0,0,1,1.748-1.752A5.051,5.051,0,0,1,445.494,49a4.859,4.859,0,0,1,2.526.634,4.317,4.317,0,0,1,1.648,1.734,5.289,5.289,0,0,1,.58,2.5c0,.1,0,.223-.009.38a2.21,2.21,0,0,1-.027.317Z" transform="translate(-420.954 -44.612)" fill="#1c1c1c"></path></g><rect id="Rectangle_10" data-name="Rectangle 10" width="5.501" height="33.201" transform="translate(-111.424 309.277)" fill="#1c1c1c"></rect><path id="Path_135" data-name="Path 135" d="M363.857,133.464a11.468,11.468,0,0,1-4.44-.8,6.8,6.8,0,0,1-2.995-2.3,6.059,6.059,0,0,1-1.084-3.632,5.709,5.709,0,0,1,1.264-3.813,8.147,8.147,0,0,1,3.409-2.315,17.768,17.768,0,0,1,4.758-1.052,50.572,50.572,0,0,0,5.406-.733q1.539-.351,1.54-1.136v-.043a2.541,2.541,0,0,0-1.338-2.294,7.357,7.357,0,0,0-3.781-.807,7.166,7.166,0,0,0-3.94.9,3.174,3.174,0,0,0-1.37,2.857h-5.523a7.151,7.151,0,0,1,1.413-4.493,8.739,8.739,0,0,1,3.877-2.793,15.352,15.352,0,0,1,5.586-.956,15.661,15.661,0,0,1,5.332.871,8.8,8.8,0,0,1,3.887,2.634,6.647,6.647,0,0,1,1.466,4.4v10.281q0,.807.053,1.583a7.032,7.032,0,0,0,.223,1.391,4.78,4.78,0,0,0,.51,1.147,4.078,4.078,0,0,0,.467.637h-5.523a3.435,3.435,0,0,1-.414-.584,5.768,5.768,0,0,1-.478-1.009,7.9,7.9,0,0,1-.319-1.37,11.343,11.343,0,0,1-.106-1.625l1.1.765a6.237,6.237,0,0,1-1.943,2.262,9.847,9.847,0,0,1-3.112,1.5,13.887,13.887,0,0,1-3.93.531m1.359-4.4a8.61,8.61,0,0,0,3.229-.595,5.4,5.4,0,0,0,2.4-1.837,5.262,5.262,0,0,0,.913-3.2v-3.016l1.359,1.529a18.212,18.212,0,0,1-3.271.839q-1.912.329-3.866.52a10.984,10.984,0,0,0-3.77.871,2.165,2.165,0,0,0-1.264,2.082,2.351,2.351,0,0,0,1.062,2.1,5.886,5.886,0,0,0,3.208.7" transform="translate(-456.333 209.48)" fill="#1c1c1c"></path><path id="Path_136" data-name="Path 136" d="M452.922,110.438h5.587V133h-5.587ZM468.875,133V120.316a8.164,8.164,0,0,0-.435-2.751,3.767,3.767,0,0,0-1.487-1.922,5.183,5.183,0,0,0-2.9-.7,5.34,5.34,0,0,0-2.868.775,5.416,5.416,0,0,0-1.965,2.124,6.568,6.568,0,0,0-.712,3.112l-1.891-1.168a9.765,9.765,0,0,1,1.285-5.024,9.4,9.4,0,0,1,8.252-4.705,9.1,9.1,0,0,1,4.578,1.062,6.8,6.8,0,0,1,2.8,3.016,10.43,10.43,0,0,1,.946,4.588V133Z" transform="translate(-526.727 209.48)" fill="#1c1c1c"></path><path id="Path_137" data-name="Path 137" d="M560.026,130.767a14.134,14.134,0,0,1,3.5.744,5.134,5.134,0,0,1,2.358,1.646,4.637,4.637,0,0,1,.85,2.921,5.007,5.007,0,0,1-1.381,3.526,8.928,8.928,0,0,1-4.047,2.294,22.883,22.883,0,0,1-6.553.807q-5.651,0-8.688-1.625t-3.038-4.408a4.944,4.944,0,0,1,.191-1.423,4.116,4.116,0,0,1,.467-1.062l5.119.743a2.045,2.045,0,0,0-.255.542,2.794,2.794,0,0,0-.128.9q0,1.317,1.774,1.9a15.535,15.535,0,0,0,4.726.584,18.505,18.505,0,0,0,3.621-.3,5.714,5.714,0,0,0,2.209-.85,1.59,1.59,0,0,0,.754-1.3,1.35,1.35,0,0,0-1-1.423,10.559,10.559,0,0,0-2.379-.425l-8.56-.786a7.31,7.31,0,0,1-3.77-1.359,3.559,3.559,0,0,1-1.477-2.974,3.818,3.818,0,0,1,.606-2.082,6.7,6.7,0,0,1,1.391-1.6,3.868,3.868,0,0,1,1.338-.8l3.186,1.572a2.263,2.263,0,0,0-1.051.573,1.538,1.538,0,0,0-.605,1.211,1.308,1.308,0,0,0,.595,1.094,5.062,5.062,0,0,0,2.294.605Zm2.528-20.328h5.013l-2.039,8.752a13.7,13.7,0,0,1-1.848,4.418,9.026,9.026,0,0,1-3.4,3.08,11.357,11.357,0,0,1-5.353,1.126,14.022,14.022,0,0,1-5.788-1.094,8.583,8.583,0,0,1-3.749-3.08,8.086,8.086,0,0,1-1.317-4.578,8.26,8.26,0,0,1,1.349-4.684,9.133,9.133,0,0,1,3.717-3.176,12.147,12.147,0,0,1,5.364-1.147,11.335,11.335,0,0,1,4.354.8,8.436,8.436,0,0,1,3.091,2.071,4.392,4.392,0,0,1,1.243,2.719l-1.253.233ZM554.907,123.5a6.89,6.89,0,0,0,2.825-.531,4.178,4.178,0,0,0,1.848-1.54,4.879,4.879,0,0,0,0-4.9,4.224,4.224,0,0,0-1.848-1.561,6.718,6.718,0,0,0-2.8-.542,6.641,6.641,0,0,0-2.783.552,4.457,4.457,0,0,0-1.9,1.583,4.73,4.73,0,0,0-.021,4.886,4.167,4.167,0,0,0,1.869,1.529,7.028,7.028,0,0,0,2.815.52" transform="translate(-591.731 209.48)" fill="#1c1c1c"></path></g></svg>