<svg width="150" height="76" viewBox="0 0 150 76" fill="none" xmlns="http://www.w3.org/2000/svg">
<g clip-path="url(#clip0_78_14309)">
<path fill-rule="evenodd" clip-rule="evenodd" d="M37 38.0625C37 17.3178 53.9947 0.5625 74.9787 0.5625C95.9628 0.5625 113.037 17.3178 112.957 38.0625C112.957 58.8072 95.9628 75.5625 74.9787 75.5625C53.9947 75.5625 37 58.8072 37 38.0625ZM70.6703 31.9189C67.9576 31.9189 65.564 33.8338 64.8459 36.4668H76.4948C75.8565 33.754 73.4629 31.9189 70.6703 31.9189ZM79.048 36.387C79.2076 37.0253 79.048 37.6636 78.6491 38.1423C78.2501 38.621 77.532 38.9402 76.6544 38.9402H64.6863V39.02L64.9257 39.9774C65.7235 41.8923 67.5586 43.9668 70.6703 43.9668C71.6278 43.9668 72.5852 43.7274 73.4629 43.2487C74.1012 42.8498 74.6597 42.4508 75.1384 41.8923L75.1384 41.8923C75.298 41.7327 75.4576 41.5732 75.5374 41.4136C75.9363 40.9349 76.3352 40.8551 76.5746 40.8551C76.8139 40.8551 77.1331 41.0147 77.3725 41.1742C77.6118 41.3338 77.7714 41.653 77.8512 41.9721C77.8512 42.2913 77.7714 42.6902 77.532 43.0093L77.4522 43.0891C76.7342 44.0466 76.0161 44.6849 75.298 45.1636C74.5001 45.6423 73.7023 46.0413 72.8246 46.4402C72.1065 46.5998 71.4682 46.6796 70.7501 46.6796C70.3512 46.6796 70.032 46.6796 69.7129 46.5998C66.2022 46.121 63.3299 43.5679 62.4522 40.2168C62.2927 39.4987 62.2129 38.8604 62.2129 38.1423C62.2129 35.3498 63.5693 32.7168 65.8033 31.121C67.2395 30.0838 68.915 29.5253 70.7501 29.5253C72.3459 29.5253 73.9416 29.9242 75.298 30.8019C77.2129 32.0785 78.5693 33.9934 79.048 36.387ZM96.1225 35.6689C94.9257 35.6689 93.9682 36.6264 93.9682 37.8232C93.9682 39.02 94.9257 39.9774 96.1225 39.9774C97.3193 39.9774 98.2767 39.02 98.2767 37.8232C98.2767 36.7062 97.3193 35.6689 96.1225 35.6689ZM86.8671 29.6051C87.5852 29.6051 88.1437 30.0838 88.1437 30.8019C88.1437 31.52 87.665 31.9987 86.8671 32.0785H86.3884C83.915 32.3976 83.6757 33.5944 83.6757 36.387V45.0838C83.6757 45.7221 83.1969 46.2806 82.4788 46.2806C81.8405 46.2806 81.282 45.7221 81.282 45.0838V30.8817C81.282 30.2434 81.7608 29.6849 82.4788 29.6849C83.0374 29.6849 83.5161 30.0838 83.6757 30.5625C84.4735 29.9242 85.5108 29.6051 86.548 29.6051H86.8671ZM55.7501 37.9827L62.1331 31.5998C62.3725 31.3604 62.532 31.0413 62.532 30.7221C62.532 30.004 61.9735 29.5253 61.2554 29.5253C60.9363 29.5253 60.6171 29.6849 60.3778 29.9242L53.9948 36.3072L47.6118 29.9242C47.3725 29.6849 47.0533 29.6051 46.7342 29.6051C46.0161 29.6051 45.5374 30.1636 45.5374 30.8019C45.5374 31.121 45.6969 31.4402 45.9363 31.6796L52.3193 38.0625L45.9363 44.4455C45.6969 44.6849 45.5374 45.004 45.5374 45.3232C45.5374 45.9615 46.0959 46.52 46.7342 46.52C47.0533 46.52 47.3725 46.3604 47.6118 46.2008L53.9948 39.8179L60.3778 46.121C60.6171 46.3604 60.9363 46.52 61.2554 46.52C61.9735 46.52 62.532 45.9615 62.532 45.3232C62.532 45.004 62.3725 44.6849 62.1331 44.4455L55.7501 37.9827ZM90.1384 37.8232C90.1384 41.1742 92.8512 43.8072 96.1225 43.8072C99.3937 43.8072 102.106 41.1742 102.106 37.8232C102.106 34.4721 99.3937 31.8391 96.1225 31.8391C92.8512 31.8391 90.1384 34.5519 90.1384 37.8232ZM87.5852 37.8232C87.5852 33.1955 91.415 29.3657 96.1225 29.3657C100.83 29.3657 104.66 33.1955 104.66 37.8232C104.66 42.4508 100.83 46.2806 96.1225 46.2806C91.415 46.2806 87.5852 42.5306 87.5852 37.8232Z" fill="#A8A8A8"/>
</g>
<defs>
<clipPath id="clip0_78_14309">
<rect width="150" height="75" fill="white" transform="translate(0 0.5625)"/>
</clipPath>
</defs>
</svg>
