<?xml version="1.0" encoding="utf-8"?>
<!-- Generator: Adobe Illustrator 23.1.0, SVG Export Plug-In . SVG Version: 6.00 Build 0)  -->
<svg version="1.1" id="Layer_1" xmlns="http://www.w3.org/2000/svg" xmlns:xlink="http://www.w3.org/1999/xlink" x="0px" y="0px"
	 viewBox="0 0 146.8 32.9" style="enable-background:new 0 0 146.8 32.9;" xml:space="preserve">
<g>
	<polygon points="20,6.7 16.6,6.7 16.6,10.1 20,10.1 	"/>
	<path d="M24.7,18.3v-5.9h-3.3v6c0,0.4-0.1,0.7-0.3,0.9c-0.2,0.2-0.5,0.4-0.9,0.4h-3.5h-1.9v-2.9c0-0.8-0.2-1.6-0.6-2.4
		c-0.4-0.7-1-1.3-1.7-1.7C11.7,12.2,10.9,12,10,12H8.4c-1.1,0-2,0.4-2.9,1.1c-0.9,0.7-1.4,1.6-1.6,2.6l-0.5,2.5
		c-0.1,0.3-0.1,0.6-0.1,0.8c0,0.8,0.2,1.6,0.6,2.2c0.4,0.7,0.9,1.2,1.6,1.7c0.7,0.4,1.5,0.6,2.3,0.6H9c1.2,0,1.9-0.1,2.3-0.3v0.3
		c0,0.5-0.2,1.1-0.6,1.6c-0.4,0.5-1,0.9-1.7,1.2l-4,1.4l1,3.1l4-1.3c1.4-0.5,2.6-1.3,3.4-2.6c0.7-1,1.1-2.1,1.2-3.4h2h2.9
		c0.9,0,1.8-0.2,2.6-0.7c0.8-0.5,1.4-1.1,1.9-1.9C24.5,20.2,24.7,19.3,24.7,18.3z M11.4,19.6H7.5c-0.2,0-0.4-0.1-0.6-0.3
		c-0.1-0.2-0.2-0.4-0.2-0.6l0.4-2.3c0.1-0.5,0.4-0.8,0.9-0.8h2.4c0.3,0,0.5,0.1,0.7,0.3c0.2,0.2,0.3,0.4,0.3,0.7V19.6z"/>
	<polygon points="42.5,26.9 42.5,30.3 45.9,30.3 45.9,26.9 	"/>
	<path d="M58,18.4c0,0.4-0.1,0.7-0.3,0.9c-0.2,0.2-0.5,0.4-0.9,0.4h-3.5h-5.1h-5.1h-5.1h-5.1h0h-1.2c-0.3,0-0.6-0.1-0.8-0.3
		c-0.2-0.2-0.4-0.5-0.4-0.8v-5.3h-3.3v9.5c0,0.9-0.2,1.6-0.5,2.1c-0.3,0.5-0.8,0.9-1.3,1.2l-2.6,1.4l1.5,2.9L27,29
		c1.2-0.7,2.1-1.5,2.7-2.3c0.6-0.9,0.9-2,0.9-3.3v-0.6c0.2,0.3,0.5,0.5,0.8,0.6c0.3,0.1,0.6,0.2,1,0.2h0.7h0h5.1h5.1h5.1h5.1h2.9
		c0.9,0,1.8-0.2,2.6-0.7c0.8-0.5,1.4-1.1,1.9-1.9c0.5-0.8,0.7-1.7,0.7-2.6v-5.9H58V18.4z"/>
	<path d="M82.2,12.6c-0.7-0.4-1.5-0.6-2.4-0.6h-6.7c-0.9,0-1.8,0.2-2.6,0.7c-0.8,0.5-1.4,1.1-1.9,1.9c-0.5,0.8-0.7,1.6-0.7,2.6v13.5
		h3.3V16.9c0-0.3,0.1-0.6,0.4-0.9c0.2-0.2,0.5-0.4,0.9-0.4h1.3l-0.4,2.4c-0.1,0.3-0.1,0.6-0.1,0.8c0,0.8,0.2,1.6,0.6,2.3
		c0.4,0.7,1,1.3,1.6,1.7c0.7,0.4,1.4,0.6,2.3,0.6H81c0.7,0,1.3-0.2,1.8-0.5c0.6-0.3,1-0.8,1.3-1.3s0.5-1.1,0.5-1.8v-3.3
		c0-0.9-0.2-1.7-0.6-2.4C83.5,13.6,82.9,13,82.2,12.6z M81.3,19.7h-3.9c-0.2,0-0.4-0.1-0.6-0.3c-0.2-0.2-0.2-0.4-0.2-0.6l0.6-3h3.1
		c0.3,0,0.5,0.1,0.7,0.3c0.2,0.2,0.3,0.4,0.3,0.6V19.7z"/>
	<polygon points="103.8,7.5 100.4,7.5 100.4,10.9 103.7,10.9 	"/>
	<polygon points="128.5,3.6 126.9,2.1 120.2,9.9 121.9,11.3 	"/>
	<path d="M142.7,14.3c-0.4-0.7-1-1.3-1.7-1.7c-0.7-0.4-1.5-0.6-2.4-0.6H128l5.3-6.3L131,3.4l-8.2,9.6l2.2,2.5h14
		c0.3,0,0.5,0.1,0.7,0.3c0.2,0.2,0.3,0.5,0.3,0.7v2c0,0.3-0.1,0.5-0.3,0.7c-0.2,0.2-0.4,0.3-0.7,0.3h-17.5h0h-5.1h-5.1h-2.2
		c-0.3,0-0.6-0.1-0.8-0.3s-0.3-0.5-0.3-0.8c0-0.1,0-0.2,0-0.3l0.8-4.4l-3.2-0.6l-1.1,5.2c-0.1,0.4-0.2,0.6-0.5,0.8
		c-0.2,0.2-0.5,0.3-0.9,0.3h-2.6h-0.8c-0.3,0-0.6-0.1-0.8-0.3s-0.4-0.5-0.5-0.8L95.8,8.3l-3.2,1.2l2.3,8.2c0,0.2,0.1,0.3,0.1,0.4
		c0,0.4-0.2,0.8-0.5,1.1c-0.3,0.3-0.7,0.5-1.2,0.5h-4.1c-0.2,0-0.3-0.1-0.5-0.2c-0.1-0.1-0.2-0.3-0.2-0.5v-3.1h-2.8v3.8
		c0,0.7,0.2,1.3,0.5,1.9c0.3,0.6,0.8,1.1,1.4,1.4c0.6,0.3,1.2,0.5,1.9,0.5h3.6c0.7,0,1.4-0.2,2-0.5c0.6-0.4,1.1-0.9,1.4-1.5
		c0.4,0.6,0.9,1.1,1.6,1.5c0.7,0.4,1.4,0.6,2.1,0.6h0.6h2.2c0.6,0,1.2-0.1,1.9-0.4c0.6-0.3,1.1-0.7,1.4-1.2c0.3,0.5,0.7,0.9,1.2,1.2
		c0.5,0.3,1.1,0.4,1.8,0.4h2.2h5.1h5.1h0h16.9c0.9,0,1.7-0.2,2.4-0.6c0.7-0.4,1.3-1,1.8-1.7c0.4-0.7,0.7-1.5,0.7-2.4v-2.1
		C143.4,15.8,143.2,15,142.7,14.3z"/>
</g>
</svg>
