<?xml version="1.0" encoding="utf-8"?>
<!-- Generator: Adobe Illustrator 23.1.0, SVG Export Plug-In . SVG Version: 6.00 Build 0)  -->
<svg version="1.1" id="Layer_1" xmlns="http://www.w3.org/2000/svg" xmlns:xlink="http://www.w3.org/1999/xlink" x="0px" y="0px"
	 viewBox="0 0 129.5 26.9" style="enable-background:new 0 0 129.5 26.9;" xml:space="preserve">
<g>
	<polygon points="12.2,7.2 14.3,7.2 14.4,5.1 12.2,5.1 	"/>
	<path d="M17.5,15.1c0,0.6-0.2,1.1-0.6,1.5c-0.4,0.4-0.9,0.6-1.5,0.6h-2.6h-2.2v-3.8c0-0.7-0.2-1.3-0.5-1.8c-0.3-0.6-0.8-1-1.3-1.3
		C8.2,9.9,7.6,9.8,6.9,9.8H5.4c-0.9,0-1.6,0.3-2.2,0.8c-0.6,0.5-1,1.2-1.2,2.1L1.6,15c0,0.3-0.1,0.5-0.1,0.6c0,0.6,0.1,1.2,0.4,1.7
		c0.3,0.5,0.7,1,1.2,1.3s1.1,0.5,1.7,0.5h2.2c0.8,0,1.4-0.1,1.8-0.2v0.6c0,0.8-0.2,1.6-0.7,2.2c-0.4,0.7-1.1,1.1-2,1.4l-3.1,1
		l0.5,1.5l3-1c1.2-0.4,2.2-1.1,2.9-2.1c0.7-1,1.1-2.1,1.1-3.4v-0.1h2.2h2.3c0.7,0,1.4-0.2,2-0.5c0.6-0.4,1.1-0.9,1.5-1.5
		c0.4-0.6,0.5-1.3,0.5-2v-4.8h-1.6V15.1z M8.9,17.2H4.8c-0.5,0-0.9-0.2-1.2-0.5c-0.3-0.3-0.5-0.7-0.5-1.2c0-0.1,0-0.2,0-0.3L3.6,13
		c0.1-0.5,0.3-0.8,0.6-1.1c0.3-0.3,0.7-0.4,1.1-0.4H7c0.5,0,1,0.2,1.3,0.5c0.4,0.4,0.5,0.8,0.5,1.3V17.2z"/>
	<rect x="37.5" y="22.4" width="2.1" height="2.1"/>
	<path d="M52.7,15.1c0,0.6-0.2,1.1-0.6,1.5c-0.4,0.4-0.9,0.6-1.5,0.6H48h-5.3h0h-5.3h-5.3h-5.3h0h-0.9c-0.6,0-1.1-0.2-1.5-0.6
		c-0.4-0.4-0.6-0.9-0.6-1.4V11h-1.7v8.3c0,0.9-0.1,1.5-0.3,2.1c-0.2,0.5-0.4,0.9-0.8,1.2c-0.3,0.3-0.8,0.6-1.3,0.8L18,24.2l0.8,1.4
		l1.6-0.9c1-0.6,1.8-1.2,2.3-2c0.5-0.8,0.8-1.9,0.8-3.4v-1.5c0.3,0.4,0.6,0.7,1.1,0.9c0.4,0.2,0.9,0.3,1.4,0.3h0.7h0h5.3h5.3h5.3h0
		H48h2.3c0.7,0,1.4-0.2,2-0.5c0.6-0.4,1.1-0.9,1.5-1.5c0.4-0.6,0.5-1.3,0.5-2v-4.8h-1.6V15.1z"/>
	<path d="M72.9,10.2c-0.6-0.3-1.2-0.5-1.8-0.5h-5.9c-0.7,0-1.4,0.2-2,0.6c-0.6,0.4-1.1,0.9-1.5,1.5c-0.4,0.6-0.6,1.3-0.6,2v12h1.6
		V13.8c0-0.6,0.2-1.1,0.6-1.6c0.4-0.5,0.9-0.7,1.5-0.7h1.5L65.8,15c0,0.3-0.1,0.5-0.1,0.6c0,0.6,0.2,1.2,0.5,1.7
		c0.3,0.5,0.7,0.9,1.2,1.3c0.5,0.3,1.1,0.5,1.7,0.5h3.4c0.7,0,1.2-0.2,1.6-0.6c0.4-0.4,0.6-1,0.6-1.7v-3.5c0-0.7-0.2-1.3-0.5-1.8
		C74,11,73.5,10.6,72.9,10.2z M73.1,17.2H69c-0.5,0-0.9-0.1-1.2-0.4c-0.3-0.3-0.4-0.7-0.4-1.2c0-0.1,0-0.3,0-0.4l0.7-3.7h3.3
		c0.5,0,1,0.2,1.3,0.5s0.5,0.8,0.5,1.3V17.2z"/>
	<polygon points="91.8,5.7 89.7,5.7 89.7,7.8 91.8,7.8 	"/>
	<polygon points="116,1.8 115,1 109.7,7.2 110.7,8 	"/>
	<path d="M127.4,11.6c-0.3-0.6-0.8-1-1.3-1.3c-0.6-0.3-1.2-0.5-1.8-0.5h-10.8l5.4-6.4l-1.2-1.1l-6.8,8l1.1,1.2h12.5
		c0.5,0,0.9,0.2,1.3,0.6c0.4,0.4,0.6,0.8,0.6,1.3v1.9c0,0.5-0.2,1-0.5,1.3c-0.4,0.4-0.8,0.5-1.3,0.5h-14.6h0h-5.3h-5.3h0h-1.6
		c-0.6,0-1.1-0.2-1.5-0.5c-0.4-0.4-0.6-0.8-0.6-1.3c0-0.1,0-0.2,0.1-0.4l0.7-3.5l-1.6-0.3l-0.8,4.2c-0.1,0.6-0.3,1-0.7,1.3
		c-0.4,0.3-0.9,0.5-1.5,0.5h-1.6h0h-0.6c-1.1,0-1.8-0.7-2.2-2.1l-2.4-8.6L83.2,7l2,7.2c0.1,0.2,0.1,0.4,0.1,0.6
		c0,0.7-0.2,1.2-0.7,1.7c-0.5,0.5-1,0.7-1.7,0.7h-4c-0.4,0-0.7-0.1-0.9-0.4s-0.3-0.6-0.3-0.9v-2.3h-1.4v2.7c0,0.8,0.3,1.4,0.8,2
		s1.2,0.8,2,0.8h3.7c0.7,0,1.4-0.2,2-0.6c0.6-0.4,1-1,1.3-1.7c0.3,0.8,0.8,1.3,1.4,1.8c0.6,0.4,1.2,0.6,1.9,0.6h0.5h0h1.6
		c0.7,0,1.3-0.2,1.8-0.5c0.6-0.3,1-0.8,1.2-1.3c0.2,0.6,0.6,1.1,1.1,1.4c0.5,0.3,1.1,0.5,1.8,0.5h1.6h0h5.3h5.3h0h14.4
		c0.7,0,1.3-0.2,1.8-0.5c0.6-0.3,1-0.8,1.4-1.3c0.3-0.6,0.5-1.2,0.5-1.8v-2C127.9,12.8,127.8,12.2,127.4,11.6z"/>
</g>
</svg>
