<?xml version="1.0" encoding="utf-8"?>
<!-- Generator: Adobe Illustrator 23.1.0, SVG Export Plug-In . SVG Version: 6.00 Build 0)  -->
<svg version="1.1" id="Layer_1" xmlns="http://www.w3.org/2000/svg" xmlns:xlink="http://www.w3.org/1999/xlink" x="0px" y="0px"
	 viewBox="0 0 200 200" style="enable-background:new 0 0 200 200;" xml:space="preserve">
<g>
	<polygon points="46.6,90.3 43.2,90.3 43.2,93.7 46.6,93.7 	"/>
	<path d="M51.3,101.9V96H48v6c0,0.4-0.1,0.7-0.3,0.9c-0.2,0.2-0.5,0.4-0.9,0.4h-3.5h-1.9v-2.9c0-0.8-0.2-1.6-0.6-2.4
		c-0.4-0.7-1-1.3-1.7-1.7c-0.7-0.4-1.5-0.6-2.4-0.6H35c-1.1,0-2,0.4-2.9,1.1c-0.9,0.7-1.4,1.6-1.6,2.6l-0.5,2.5
		c-0.1,0.3-0.1,0.6-0.1,0.8c0,0.8,0.2,1.6,0.6,2.2c0.4,0.7,0.9,1.2,1.6,1.7c0.7,0.4,1.5,0.6,2.3,0.6h1.1c1.2,0,1.9-0.1,2.3-0.3v0.3
		c0,0.5-0.2,1.1-0.6,1.6c-0.4,0.5-1,0.9-1.7,1.2l-4,1.4l1,3.1l4-1.3c1.4-0.5,2.6-1.3,3.4-2.6c0.7-1,1.1-2.1,1.2-3.4h2h2.9
		c0.9,0,1.8-0.2,2.6-0.7c0.8-0.5,1.4-1.1,1.9-1.9C51.1,103.7,51.3,102.9,51.3,101.9z M38,103.2h-3.9c-0.2,0-0.4-0.1-0.6-0.3
		c-0.1-0.2-0.2-0.4-0.2-0.6l0.4-2.3c0.1-0.5,0.4-0.8,0.9-0.8H37c0.3,0,0.5,0.1,0.7,0.3c0.2,0.2,0.3,0.4,0.3,0.7V103.2z"/>
	<polygon points="69.1,110.5 69.1,113.9 72.5,113.9 72.5,110.5 	"/>
	<path d="M84.6,102c0,0.4-0.1,0.7-0.3,0.9c-0.2,0.2-0.5,0.4-0.9,0.4h-3.5h-5.1h-5.1h-5.1h-5.1h0h-1.2c-0.3,0-0.6-0.1-0.8-0.3
		c-0.2-0.2-0.4-0.5-0.4-0.8v-5.3h-3.3v9.5c0,0.9-0.2,1.6-0.5,2.1c-0.3,0.5-0.8,0.9-1.3,1.2l-2.6,1.4L51,114l2.6-1.5
		c1.2-0.7,2.1-1.5,2.7-2.3c0.6-0.9,0.9-2,0.9-3.3v-0.6c0.2,0.3,0.5,0.5,0.8,0.6c0.3,0.1,0.6,0.2,1,0.2h0.7h0h5.1h5.1h5.1h5.1h2.9
		c0.9,0,1.8-0.2,2.6-0.7c0.8-0.5,1.4-1.1,1.9-1.9c0.5-0.8,0.7-1.7,0.7-2.6V96h-3.3V102z"/>
	<path d="M108.8,96.1c-0.7-0.4-1.5-0.6-2.4-0.6h-6.7c-0.9,0-1.8,0.2-2.6,0.7c-0.8,0.5-1.4,1.1-1.9,1.9c-0.5,0.8-0.7,1.6-0.7,2.6
		v13.5h3.3v-13.7c0-0.3,0.1-0.6,0.4-0.9c0.2-0.2,0.5-0.4,0.9-0.4h1.3l-0.4,2.4c-0.1,0.3-0.1,0.6-0.1,0.8c0,0.8,0.2,1.6,0.6,2.3
		c0.4,0.7,1,1.3,1.6,1.7c0.7,0.4,1.4,0.6,2.3,0.6h3.2c0.7,0,1.3-0.2,1.8-0.5c0.6-0.3,1-0.8,1.3-1.3c0.3-0.6,0.5-1.1,0.5-1.8v-3.3
		c0-0.9-0.2-1.7-0.6-2.4C110.1,97.1,109.5,96.6,108.8,96.1z M107.9,103.2h-3.9c-0.2,0-0.4-0.1-0.6-0.3c-0.2-0.2-0.2-0.4-0.2-0.6
		l0.6-3h3.1c0.3,0,0.5,0.1,0.7,0.3s0.3,0.4,0.3,0.6V103.2z"/>
	<polygon points="130.4,91.1 127,91.1 127,94.4 130.3,94.4 	"/>
	<polygon points="155.1,87.2 153.5,85.6 146.8,93.5 148.5,94.8 	"/>
	<path d="M169.3,97.9c-0.4-0.7-1-1.3-1.7-1.7c-0.7-0.4-1.5-0.6-2.4-0.6h-10.6l5.3-6.3l-2.4-2.2l-8.2,9.6l2.2,2.5h14
		c0.3,0,0.5,0.1,0.7,0.3c0.2,0.2,0.3,0.5,0.3,0.7v2c0,0.3-0.1,0.5-0.3,0.7c-0.2,0.2-0.4,0.3-0.7,0.3h-17.5h0h-5.1h-5.1h-2.2
		c-0.3,0-0.6-0.1-0.8-0.3s-0.3-0.5-0.3-0.8c0-0.1,0-0.2,0-0.3l0.8-4.4l-3.2-0.6l-1.1,5.2c-0.1,0.4-0.2,0.6-0.5,0.8
		c-0.2,0.2-0.5,0.3-0.9,0.3h-2.6h-0.8c-0.3,0-0.6-0.1-0.8-0.3s-0.4-0.5-0.5-0.8l-2.8-10.2l-3.2,1.2l2.3,8.2c0,0.2,0.1,0.3,0.1,0.4
		c0,0.4-0.2,0.8-0.5,1.1c-0.3,0.3-0.7,0.5-1.2,0.5h-4.1c-0.2,0-0.3-0.1-0.5-0.2c-0.1-0.1-0.2-0.3-0.2-0.5v-3.1h-2.8v3.8
		c0,0.7,0.2,1.3,0.5,1.9c0.3,0.6,0.8,1.1,1.4,1.4c0.6,0.3,1.2,0.5,1.9,0.5h3.6c0.7,0,1.4-0.2,2-0.5s1.1-0.9,1.4-1.5
		c0.4,0.6,0.9,1.1,1.6,1.5c0.7,0.4,1.4,0.6,2.1,0.6h0.6h2.2c0.6,0,1.2-0.1,1.9-0.4s1.1-0.7,1.4-1.2c0.3,0.5,0.7,0.9,1.2,1.2
		c0.5,0.3,1.1,0.4,1.8,0.4h2.2h5.1h5.1h0h16.9c0.9,0,1.7-0.2,2.4-0.6c0.7-0.4,1.3-1,1.8-1.7c0.4-0.7,0.7-1.5,0.7-2.4v-2.1
		C170,99.4,169.8,98.6,169.3,97.9z"/>
</g>
</svg>
