<?xml version="1.0" encoding="utf-8"?>
<!-- Generator: Adobe Illustrator 23.1.0, SVG Export Plug-In . SVG Version: 6.00 Build 0)  -->
<svg version="1.1" id="Layer_1" xmlns="http://www.w3.org/2000/svg" xmlns:xlink="http://www.w3.org/1999/xlink" x="0px" y="0px"
	 viewBox="0 0 200 200" style="enable-background:new 0 0 200 200;" xml:space="preserve">
<g>
	<polygon points="47.5,93.8 49.6,93.8 49.6,91.7 47.5,91.7 	"/>
	<path d="M52.7,101.6c0,0.6-0.2,1.1-0.6,1.5c-0.4,0.4-0.9,0.6-1.5,0.6H48h-2.2v-3.8c0-0.7-0.2-1.3-0.5-1.8c-0.3-0.6-0.8-1-1.3-1.3
		c-0.6-0.3-1.2-0.5-1.8-0.5h-1.5c-0.9,0-1.6,0.3-2.2,0.8c-0.6,0.5-1,1.2-1.2,2.1l-0.4,2.4c0,0.3-0.1,0.5-0.1,0.6
		c0,0.6,0.1,1.2,0.4,1.7c0.3,0.5,0.7,1,1.2,1.3s1.1,0.5,1.7,0.5h2.2c0.8,0,1.4-0.1,1.8-0.2v0.6c0,0.8-0.2,1.6-0.7,2.2
		c-0.4,0.7-1.1,1.1-2,1.4l-3.1,1l0.5,1.5l3-1c1.2-0.4,2.2-1.1,2.9-2.1c0.7-1,1.1-2.1,1.1-3.4v-0.1H48h2.3c0.7,0,1.4-0.2,2-0.5
		c0.6-0.4,1.1-0.9,1.5-1.5c0.4-0.6,0.5-1.3,0.5-2v-4.8h-1.6V101.6z M44.2,103.7h-4.1c-0.5,0-0.9-0.2-1.2-0.5
		c-0.3-0.3-0.5-0.7-0.5-1.2c0-0.1,0-0.2,0-0.3l0.4-2.2c0.1-0.5,0.3-0.8,0.6-1.1c0.3-0.3,0.7-0.4,1.1-0.4h1.8c0.5,0,1,0.2,1.3,0.5
		c0.4,0.4,0.5,0.8,0.5,1.3V103.7z"/>
	<rect x="72.8" y="108.9" width="2.1" height="2.1"/>
	<path d="M87.9,101.6c0,0.6-0.2,1.1-0.6,1.5c-0.4,0.4-0.9,0.6-1.5,0.6h-2.6h-5.3h0h-5.3h-5.3h-5.3h0h-0.9c-0.6,0-1.1-0.2-1.5-0.6
		c-0.4-0.4-0.6-0.9-0.6-1.4v-4.1h-1.7v8.3c0,0.9-0.1,1.5-0.3,2.1c-0.2,0.5-0.4,0.9-0.8,1.2c-0.3,0.3-0.8,0.6-1.3,0.8l-1.5,0.8
		l0.8,1.4l1.6-0.9c1-0.6,1.8-1.2,2.3-2c0.5-0.8,0.8-1.9,0.8-3.4v-1.5c0.3,0.4,0.6,0.7,1.1,0.9c0.4,0.2,0.9,0.3,1.4,0.3h0.7h0h5.3
		h5.3h5.3h0h5.3h2.3c0.7,0,1.4-0.2,2-0.5c0.6-0.4,1.1-0.9,1.5-1.5c0.4-0.6,0.5-1.3,0.5-2v-4.8h-1.6V101.6z"/>
	<path d="M108.2,96.8c-0.6-0.3-1.2-0.5-1.8-0.5h-5.9c-0.7,0-1.4,0.2-2,0.6c-0.6,0.4-1.1,0.9-1.5,1.5c-0.4,0.6-0.6,1.3-0.6,2v12H98
		v-12.1c0-0.6,0.2-1.1,0.6-1.6c0.4-0.5,0.9-0.7,1.5-0.7h1.5l-0.6,3.5c0,0.3-0.1,0.5-0.1,0.6c0,0.6,0.2,1.2,0.5,1.7
		c0.3,0.5,0.7,0.9,1.2,1.3c0.5,0.3,1.1,0.5,1.7,0.5h3.4c0.7,0,1.2-0.2,1.6-0.6c0.4-0.4,0.6-1,0.6-1.7v-3.5c0-0.7-0.2-1.3-0.5-1.8
		C109.2,97.6,108.8,97.1,108.2,96.8z M108.4,103.7h-4.1c-0.5,0-0.9-0.1-1.2-0.4c-0.3-0.3-0.4-0.7-0.4-1.2c0-0.1,0-0.3,0-0.4l0.7-3.7
		h3.3c0.5,0,1,0.2,1.3,0.5s0.5,0.8,0.5,1.3V103.7z"/>
	<polygon points="127.1,92.3 124.9,92.3 124.9,94.4 127,94.4 	"/>
	<polygon points="151.2,88.4 150.3,87.6 145,93.8 146,94.5 	"/>
	<path d="M162.7,98.2c-0.3-0.6-0.8-1-1.3-1.3c-0.6-0.3-1.2-0.5-1.8-0.5h-10.8l5.4-6.4l-1.2-1.1l-6.8,8l1.1,1.2h12.5
		c0.5,0,0.9,0.2,1.3,0.6c0.4,0.4,0.6,0.8,0.6,1.3v1.9c0,0.5-0.2,1-0.5,1.3c-0.4,0.4-0.8,0.5-1.3,0.5h-14.6h0h-5.3h-5.3h0h-1.6
		c-0.6,0-1.1-0.2-1.5-0.5c-0.4-0.4-0.6-0.8-0.6-1.3c0-0.1,0-0.2,0.1-0.4l0.7-3.5l-1.6-0.3l-0.8,4.2c-0.1,0.6-0.3,1-0.7,1.3
		c-0.4,0.3-0.9,0.5-1.5,0.5h-1.6h0h-0.6c-1.1,0-1.8-0.7-2.2-2.1L120,93l-1.6,0.5l2,7.2c0.1,0.2,0.1,0.4,0.1,0.6
		c0,0.7-0.2,1.2-0.7,1.7c-0.5,0.5-1,0.7-1.7,0.7h-4c-0.4,0-0.7-0.1-0.9-0.4s-0.3-0.6-0.3-0.9v-2.3h-1.4v2.7c0,0.8,0.3,1.4,0.8,2
		s1.2,0.8,2,0.8h3.7c0.7,0,1.4-0.2,2-0.6c0.6-0.4,1-1,1.3-1.7c0.3,0.8,0.8,1.3,1.4,1.8c0.6,0.4,1.2,0.6,1.9,0.6h0.5h0h1.6
		c0.7,0,1.3-0.2,1.8-0.5c0.6-0.3,1-0.8,1.2-1.3c0.2,0.6,0.6,1.1,1.1,1.4c0.5,0.3,1.1,0.5,1.8,0.5h1.6h0h5.3h5.3h0h14.4
		c0.7,0,1.3-0.2,1.8-0.5c0.6-0.3,1-0.8,1.4-1.3c0.3-0.6,0.5-1.2,0.5-1.8v-2C163.2,99.3,163,98.7,162.7,98.2z"/>
</g>
</svg>
